<?xml version="1.0" encoding="UTF-8"?>
<svg width="549px" height="403px" viewBox="0 0 549 403" version="1.1" xmlns="http://www.w3.org/2000/svg" xmlns:xlink="http://www.w3.org/1999/xlink">
    <!-- Generator: Sketch 52.4 (67378) - http://www.bohemiancoding.com/sketch -->
    <title>download</title>
    <desc>Created with Sketch.</desc>
    <g id="Page-1" stroke="none" stroke-width="1" fill="none" fill-rule="evenodd">
        <g id="download" fill="#FFFFFF" fill-rule="nonzero">
            <path d="M524.326,224.352 C508.43,204.462 488.116,191.57 463.367,185.668 C471.177,173.868 475.071,160.734 475.071,146.269 C475.071,126.092 467.932,108.868 453.662,94.591 C439.389,80.319 422.164,73.18 401.987,73.18 C383.904,73.18 368.108,79.081 354.597,90.883 C343.372,63.473 325.426,41.49 300.78,24.933 C276.134,8.371 248.962,0.091 219.266,0.091 C178.917,0.091 144.464,14.37 115.913,42.921 C87.36,71.465 73.088,105.92 73.088,146.272 C73.088,148.746 73.279,152.839 73.659,158.547 C51.2,169.016 33.31,184.718 19.983,205.653 C6.661,226.594 0,249.43 0,274.179 C0,309.393 12.517,339.508 37.544,364.537 C62.572,389.574 92.694,402.085 127.906,402.085 L438.542,402.085 C468.801,402.085 494.638,391.374 516.054,369.965 C537.467,348.556 548.175,322.719 548.175,292.449 C548.172,266.944 540.223,244.248 524.326,224.352 Z M362.595,235.344 L262.38,335.565 C260.669,337.272 258.479,338.131 255.813,338.131 C253.149,338.131 250.959,337.272 249.246,335.565 L148.75,235.063 C147.037,233.352 146.182,231.162 146.182,228.496 C146.182,226.022 147.082,223.88 148.89,222.073 C150.702,220.265 152.839,219.362 155.313,219.362 L219.267,219.362 L219.267,118.865 C219.267,116.391 220.172,114.249 221.979,112.438 C223.788,110.633 225.928,109.73 228.402,109.73 L283.225,109.73 C285.703,109.73 287.834,110.63 289.652,112.438 C291.456,114.249 292.359,116.391 292.359,118.865 L292.359,219.362 L356.313,219.362 C358.978,219.362 361.168,220.217 362.876,221.928 C364.59,223.639 365.438,225.829 365.438,228.495 C365.438,230.789 364.494,233.064 362.595,235.344 Z" id="Shape"></path>
        </g>
    </g>
</svg>