<?xml version="1.0" encoding="UTF-8"?>
<svg width="214px" height="429px" viewBox="0 0 214 429" version="1.1" xmlns="http://www.w3.org/2000/svg" xmlns:xlink="http://www.w3.org/1999/xlink">
    <!-- Generator: Sketch 52.4 (67378) - http://www.bohemiancoding.com/sketch -->
    <title>Group 2</title>
    <desc>Created with Sketch.</desc>
    <defs>
        <rect id="path-1" x="0" y="0" width="86" height="57" rx="8"></rect>
    </defs>
    <g id="Page-1" stroke="none" stroke-width="1" fill="none" fill-rule="evenodd">
        <g id="Group-2">
            <g id="robot">
                <path d="M135,394.8 C127.4,394.8 121,388.4 121,380.8 L121,316.8 C121,309.2 127.4,302.8 135,302.8 C142.6,302.8 149,309.2 149,316.8 L149,380.8 C149,388.8 143,394.8 135,394.8 Z" id="Path" fill="#FFFFFF"></path>
                <path d="M135,284.4 C131.8,284.4 129,287.2 129,290.4 L129,313.2 C129,316.4 131.8,319.2 135,319.2 C138.2,319.2 141,316.4 141,313.2 L141,290.4 C141,287.2 138.2,284.4 135,284.4 Z" id="Path" fill="#324A5E"></path>
                <path d="M84.2,394.8 C76.6,394.8 70.2,388.4 70.2,380.8 L70.2,316.8 C70.2,309.2 76.6,302.8 84.2,302.8 C91.8,302.8 98.2,309.2 98.2,316.8 L98.2,380.8 C98.2,388.8 91.8,394.8 84.2,394.8 Z" id="Path" fill="#FFFFFF"></path>
                <g id="Group" transform="translate(78.000000, 284.000000)" fill="#324A5E">
                    <path d="M6.2,0.4 C3,0.4 0.2,3.2 0.2,6.4 L0.2,29.2 C0.2,32.4 3,35.2 6.2,35.2 C9.4,35.2 12.2,32.4 12.2,29.2 L12.2,6.4 C12.2,3.2 9.4,0.4 6.2,0.4 Z" id="Path"></path>
                    <path d="M63,124.4 L63,104 C63,100.8 60.2,98 57,98 C53.8,98 51,100.8 51,104 L51,124.4 L63,124.4 Z" id="Path"></path>
                    <path d="M12.2,124.4 L12.2,104 C12.2,100.8 9.4,98 6.2,98 C3,98 0.2,100.8 0.2,104 L0.2,124.4 L12.2,124.4 Z" id="Path"></path>
                </g>
                <path d="M163.4,154.8 C147.4,144 127.8,137.6 107,137.6 C86.2,137.6 66.6,144 50.6,154.8 C41.8,171.2 38.2,190.8 40.2,210.4 C42.6,230.4 50.2,278.4 62.6,292.8 L107.8,292.8 L151.8,292.8 C163.8,278.8 171.8,230.4 174.2,210.4 C176.2,190.8 172.2,171.6 163.4,154.8 Z" id="Path" fill="#E6E9EE"></path>
                <g id="Group" transform="translate(39.000000, 138.000000)" fill="#FFFFFF">
                    <path d="M134.8,72.8 C132.4,92.8 124.8,140.8 112.4,155.2 L23.6,155.2 C11.6,141.2 3.6,92.8 1.2,72.8 C-1.2,52.8 2.8,33.6 11.6,17.2 C20,11.6 29.6,6.8 40,4 C48.8,1.2 58.4,5.68434189e-14 68.4,5.68434189e-14 C78.4,5.68434189e-14 87.6,1.6 96.8,4 C97.6,4 98,4.4 98.4,4.4 C108,7.2 116.8,11.6 124.8,17.2 C133.2,33.6 137.2,52.8 134.8,72.8 Z" id="Path"></path>
                    <path d="M116.8,290.4 C117.2,288.8 117.2,287.6 117.2,286 C117.2,274.4 107.6,264.8 96,264.8 C84.4,264.8 74.8,274.4 74.8,286 C74.8,287.6 74.8,289.2 75.2,290.4 L116.8,290.4 Z" id="Path"></path>
                    <path d="M66,290.4 C66.4,288.8 66.4,287.6 66.4,286 C66.4,274.4 56.8,264.8 45.2,264.8 C33.6,264.8 24,274.4 24,286 C24,287.6 24,289.2 24.4,290.4 L66,290.4 Z" id="Path"></path>
                </g>
                <path d="M135.4,142.4 C135.4,151.2 122.6,158 107,158 C91.4,158 78.6,150.8 78.6,142.4 C78.6,142 78.6,141.6 78.6,141.6 C87.4,138.8 97,137.6 107,137.6 C117,137.6 126.2,139.2 135.4,141.6 C135.4,142 135.4,142.4 135.4,142.4 Z" id="Path" fill="#2B3B4E"></path>
                <path d="M117.8,97.2 L117.8,157.2 C114.6,158 110.6,158.4 107,158.4 C103,158.4 99.4,158 96.2,157.2 L96.2,97.2 L117.8,97.2 Z" id="Path" fill="#324A5E"></path>
                <path d="M193,168 C193,168 232.2,229.6 203,284.8 L192.2,282 C192.2,282 208.6,218 176.2,180 L193,168 Z" id="Path" fill="#2B3B4E"></path>
                <g id="Group" transform="translate(161.000000, 154.000000)" fill="#324A5E">
                    <circle id="Oval" cx="18" cy="18.4" r="18"></circle>
                    <path d="M40,174.8 C37.6,175.2 35.2,173.2 34.8,170.8 L33.2,157.2 C32.8,154.8 34.8,152.4 37.2,152 C39.6,151.6 42,153.6 42.4,156 L44,169.6 C44.4,172.4 42.8,174.8 40,174.8 Z" id="Path"></path>
                    <path d="M20.8,169.2 C18.4,168.4 17.2,165.6 18,163.2 L22.8,150 C23.6,147.6 26.4,146.4 28.8,147.2 C31.2,148 32.4,150.8 31.6,153.2 L26.8,166.4 C26,168.8 23.2,170.4 20.8,169.2 Z" id="Path"></path>
                    <path d="M6.8,130.8 C6,128.4 7.2,126 9.6,124.8 L22.8,120 C25.2,119.2 27.6,120.4 28.8,122.8 C29.6,125.2 28.4,127.6 26,128.8 L12.8,133.6 C10.4,134.4 7.6,133.2 6.8,130.8 Z" id="Path"></path>
                    <path d="M3.2,162 C4.8,163.6 8,163.6 9.6,162 L19.2,152 C20.8,150.4 20.8,147.2 19.2,145.6 C17.6,144 14.4,144 12.8,145.6 L3.2,155.6 C1.6,157.2 1.6,160.4 3.2,162 Z" id="Path"></path>
                </g>
                <path d="M209,279.6 L189,272.4 C186.2,271.6 183.4,272.8 182.2,275.6 L173.8,299.2 C173,302 174.2,304.8 177,306 L197,313.2 C199.8,314 202.6,312.8 203.8,310 L212.2,286.4 C213.4,283.6 211.8,280.4 209,279.6 Z" id="Path" fill="#FFFFFF"></path>
                <path d="M21,168 C21,168 -18.2,229.6 11,284.8 L21.8,282 C21.8,282 5.4,218 37.8,180 L21,168 Z" id="Path" fill="#2B3B4E"></path>
                <g id="Group" transform="translate(8.000000, 154.000000)" fill="#324A5E">
                    <circle id="Oval" cx="27" cy="18.4" r="18"></circle>
                    <path d="M5,174.8 C7.4,175.2 9.8,173.2 10.2,170.8 L11.8,157.2 C12.2,154.8 10.2,152.4 7.8,152 C5.4,151.6 3,153.6 2.6,156 L1,170 C0.6,172.4 2.2,174.8 5,174.8 Z" id="Path"></path>
                    <path d="M24.2,169.2 C26.6,168.4 27.8,165.6 27,163.2 L22.2,150 C21.4,147.6 18.6,146.4 16.2,147.2 C13.8,148 12.6,150.8 13.4,153.2 L18.2,166.4 C19,168.8 21.8,170.4 24.2,169.2 Z" id="Path"></path>
                    <path d="M38.2,130.8 C39,128.4 37.8,126 35.4,124.8 L22.2,120 C19.8,119.2 17.4,120.4 16.2,122.8 C15.4,125.2 16.6,127.6 19,128.8 L32.2,133.6 C34.6,134.4 37.4,133.2 38.2,130.8 Z" id="Path"></path>
                    <path d="M41.8,162 C40.2,163.6 37,163.6 35.4,162 L25.8,152 C24.2,150.4 24.2,147.2 25.8,145.6 C27.4,144 30.6,144 32.2,145.6 L41.8,155.6 C43.4,157.2 43.4,160.4 41.8,162 Z" id="Path"></path>
                </g>
                <g id="Group" transform="translate(1.000000, 0.000000)" fill="#FFFFFF">
                    <path d="M4,279.6 L24,272.4 C26.8,271.6 29.6,272.8 30.8,275.6 L39.2,299.2 C40,302 38.8,304.8 36,306 L16,313.2 C13.2,314 10.4,312.8 9.2,310 L0.8,286.4 C-0.4,283.6 1.2,280.4 4,279.6 Z" id="Path"></path>
                    <path d="M192.8,86.4 C192.8,91.2 192.4,96 191.6,100.4 C168.8,110.4 138.8,116.4 106,116.4 C73.2,116.4 43.6,110.4 20.4,100.4 C19.6,95.6 19.2,91.2 19.2,86.4 C19.2,38.8 58,0 106,0 C154,0 192.8,38.8 192.8,86.4 Z" id="Path"></path>
                </g>
                <g id="Group" transform="translate(51.000000, 36.000000)" fill="#84DBFF">
                    <circle id="Oval" cx="89.6" cy="22.4" r="22"></circle>
                    <circle id="Oval" cx="22.4" cy="22.4" r="22"></circle>
                </g>
                <circle id="Oval" fill="#324A5E" cx="73.4" cy="58.4" r="10.4"></circle>
                <circle id="Oval" fill="#FFFFFF" cx="65.8" cy="64.8" r="3.2"></circle>
                <circle id="Oval" fill="#324A5E" cx="141" cy="58.4" r="10.4"></circle>
                <circle id="Oval" fill="#FFFFFF" cx="133.4" cy="64.8" r="3.2"></circle>
                <path d="M157.4,91.2 C153.4,100.4 132.6,107.6 107,107.6 C81.8,107.6 60.6,100.4 56.6,91.2 C69.8,93.6 87.8,95.2 107,95.2 C126.2,95.2 143.8,93.6 157.4,91.2 Z" id="Path" fill="#ACB3BA"></path>
            </g>
            <g id="Group-3" transform="translate(64.000000, 182.000000)">
                <mask id="mask-2" fill="white">
                    <use xlink:href="#path-1"></use>
                </mask>
                <use id="Rectangle" fill="#FFFFFF" xlink:href="#path-1"></use>
                <g id="Flag_of_Esperanto" mask="url(#mask-2)">
                    <polyline id="Path" fill="#FFFFFF" points="0 0 28.9533333 0 28.9533333 28.785 0 28.785"></polyline>
                    <path d="M0,28.5 L28.6666667,28.5 L28.6666667,0 L86,0 L86,57 L0,57 M8.31333333,22.3725 L14.19,4.4175 L20.0666667,22.3725 L4.73,11.2575 L23.7933333,11.2575" id="Shape" fill="#009900" fill-rule="nonzero"></path>
                </g>
            </g>
        </g>
    </g>
</svg>