<?xml version="1.0" encoding="UTF-8"?>
<svg width="300px" height="300px" viewBox="0 0 300 300" version="1.1" xmlns="http://www.w3.org/2000/svg" xmlns:xlink="http://www.w3.org/1999/xlink">
    <!-- Generator: Sketch 52.4 (67378) - http://www.bohemiancoding.com/sketch -->
    <title>pause</title>
    <desc>Created with Sketch.</desc>
    <g id="Page-1" stroke="none" stroke-width="1" fill="none" fill-rule="evenodd">
        <g id="pause" fill="#FFFFFF" fill-rule="nonzero">
            <path d="M150.001,0 C67.163,0 0.001,67.159 0.001,150 C0.001,232.838 67.163,300.003 150.001,300.003 C232.844,300.003 300.001,232.838 300.001,150 C300.001,67.159 232.846,0 150.001,0 Z M134.41,194.538 C134.41,204.036 126.71,211.736 117.212,211.736 C107.714,211.736 100.014,204.036 100.014,194.538 L100.014,105.46 C100.014,95.962 107.714,88.262 117.212,88.262 C126.71,88.262 134.41,95.962 134.41,105.46 L134.41,194.538 Z M198.955,194.538 C198.955,204.036 191.254,211.736 181.757,211.736 C172.259,211.736 164.559,204.036 164.559,194.538 L164.559,105.46 C164.559,95.962 172.259,88.262 181.757,88.262 C191.255,88.262 198.955,95.962 198.955,105.46 L198.955,194.538 Z" id="Shape"></path>
        </g>
    </g>
</svg>