<?xml version="1.0" encoding="UTF-8"?>
<svg width="50px" height="50px" viewBox="0 0 50 50" version="1.1" xmlns="http://www.w3.org/2000/svg" xmlns:xlink="http://www.w3.org/1999/xlink">
    <!-- Generator: Sketch 52.4 (67378) - http://www.bohemiancoding.com/sketch -->
    <title>cog-wheel-silhouette</title>
    <desc>Created with Sketch.</desc>
    <g id="Page-1" stroke="none" stroke-width="1" fill="none" fill-rule="evenodd">
        <g id="cog-wheel-silhouette" fill="#FFFFFF" fill-rule="nonzero">
            <path d="M49.7402646,20.6871153 C49.5659314,20.4588522 49.3384659,20.3230573 49.0567279,20.2799587 L43.099412,19.3687305 C42.7740052,18.3269522 42.3291077,17.2638526 41.7649477,16.1785196 C42.1551166,15.6360241 42.740826,14.8711944 43.5219619,13.8834604 C44.3030979,12.8959544 44.8563122,12.1746794 45.1821751,11.7187233 C45.3558242,11.4799705 45.4420217,11.2306142 45.4420217,10.9699701 C45.4420217,10.6663413 45.3667699,10.4278166 45.2142141,10.2539399 C44.4334202,9.14705755 42.6428847,7.30259572 39.8432917,4.71998431 C39.5839012,4.50300892 39.3118547,4.39457824 39.0301168,4.39457824 C38.7043679,4.39457824 38.4440653,4.49206324 38.2486388,4.68726128 L33.6264712,8.17038326 C32.7364483,7.7144271 31.7598858,7.31297132 30.6970119,6.9657879 L29.7855536,0.976560273 C29.7637762,0.694480867 29.6388127,0.461086952 29.4110052,0.276606564 C29.1828556,0.0918981413 28.9175361,0 28.6132226,0 L21.3867746,0 C20.7573963,0 20.3666573,0.303628722 20.2148996,0.911342237 C19.9327056,1.99599114 19.6179024,4.01421571 19.2708323,6.96567388 C18.250715,7.29176406 17.2633209,7.7040515 16.3085358,8.20310629 L11.8163486,4.71998431 C11.5342685,4.50300892 11.2521885,4.39457824 10.9701085,4.39457824 C10.492716,4.39457824 9.46746791,5.17035361 7.89402229,6.72201838 C6.32057667,8.27402521 5.25234391,9.44031068 4.68761375,10.2212168 C4.49218725,10.5032962 4.39481605,10.7529947 4.39481605,10.9699701 C4.39481605,11.2306142 4.50313296,11.4910302 4.72010883,11.7511043 C6.17394978,13.5092548 7.33522106,15.0061912 8.20335257,16.2437376 C7.66074187,17.2418472 7.23762182,18.2402988 6.93410644,19.2384084 L0.879191245,20.1496366 C0.640551993,20.1931913 0.434521831,20.3344591 0.260758705,20.5732118 C0.0866535269,20.8117365 0,21.061549 0,21.321509 L0,28.548283 C0,28.8308185 0.0866535269,29.0851916 0.260416652,29.3131127 C0.434179777,29.5409198 0.661873321,29.6773988 0.944067373,29.7203834 L6.90149735,30.5994586 C7.20512675,31.6626723 7.64991018,32.7364895 8.23596167,33.8212524 C7.84556472,34.3640899 7.25962726,35.1288056 6.4783773,36.1163116 C5.69724136,37.1042736 5.1433429,37.8253206 4.81816413,38.2810487 C4.64428699,38.5207136 4.55763346,38.7696139 4.55763346,39.030144 C4.55763346,39.3118813 4.63356932,39.5612377 4.78532701,39.7782131 C5.63168113,40.9507695 7.4219886,42.773682 10.1565915,45.2475207 C10.3954588,45.4862734 10.6668211,45.6053077 10.9703365,45.6053077 C11.2960854,45.6053077 11.5673337,45.5081648 11.7841956,45.3130808 L16.3744381,41.8295027 C17.2646891,42.2852309 18.2410235,42.6868006 19.3043535,43.0344401 L20.2156977,49.0236678 C20.2377032,49.3054051 20.3624387,49.538799 20.5900182,49.7237355 C20.8177117,49.9086719 21.0838293,50 21.3875727,50 L28.6140208,50 C29.2445392,50 29.6347081,49.6964853 29.7869219,49.0885437 C30.0686598,48.0037808 30.3831209,45.9857843 30.7303051,43.0344401 C31.7503083,42.708578 32.7378165,42.2960625 33.6926015,41.7967797 L38.1851308,45.3130808 C38.4887602,45.5082788 38.7712963,45.6053077 39.0311429,45.6053077 C39.5084214,45.6053077 40.5283106,44.8354613 42.0905825,43.2941721 C43.6536525,41.7536811 44.7278142,40.5816947 45.3131816,39.7782131 C45.508266,39.5613517 45.6060933,39.3118813 45.6060933,39.030144 C45.6060933,38.7476085 45.4981184,38.4757907 45.2803444,38.2161727 C43.7185286,36.3059228 42.5572574,34.8091004 41.7975568,33.7236534 C42.2315085,32.9206278 42.6548566,31.9334639 43.067259,30.7614776 L49.089337,29.8507054 C49.3491836,29.8070367 49.5669576,29.665769 49.7401506,29.4270162 C49.9137997,29.1878074 49.9999972,28.938109 49.9999972,28.6778069 L49.9999972,21.451831 C50.0005673,21.1697516 49.9143698,20.9151504 49.7402646,20.6871153 Z M30.8926665,30.8917996 C29.2655185,32.5196281 27.3014479,33.3335994 25.0006827,33.3335994 C22.7001456,33.3335994 20.736303,32.5196281 19.1084709,30.8917996 C17.4812089,29.2646552 16.6672358,27.300475 16.6672358,25.000171 C16.6672358,22.699639 17.4807528,20.7358008 19.1084709,19.1079723 C20.736303,17.4807139 22.7004876,16.6667427 25.0006827,16.6667427 C27.3014479,16.6667427 29.2656325,17.4807139 30.8926665,19.1079723 C32.5201565,20.7358008 33.3341296,22.699639 33.3341296,25.000171 C33.3341296,27.300475 32.5202705,29.2647693 30.8926665,30.8917996 Z" id="Shape"></path>
        </g>
    </g>
</svg>