<?xml version="1.0" encoding="UTF-8"?>
<svg width="210px" height="210px" viewBox="0 0 210 210" version="1.1" xmlns="http://www.w3.org/2000/svg" xmlns:xlink="http://www.w3.org/1999/xlink">
    <!-- Generator: Sketch 52.4 (67378) - http://www.bohemiancoding.com/sketch -->
    <title>Artboard</title>
    <desc>Created with Sketch.</desc>
    <g id="Artboard" stroke="none" stroke-width="1" fill="none" fill-rule="evenodd">
        <g id="male" transform="translate(16.000000, 5.000000)" fill="#FFFFFF">
            <path d="M50.0174118,115.556706 C51.8555294,115.556706 53.5835294,116.272471 54.8832941,117.572235 C55.6183529,118.307294 56.5816471,118.675294 57.5454118,118.674824 C58.5087059,118.674824 59.4724706,118.307294 60.2075294,117.572235 C61.6781176,116.102118 61.6781176,113.718588 60.2075294,112.248 C57.4856471,109.526118 53.8668235,108.027294 50.0178824,108.027294 C46.1689412,108.027294 42.5501176,109.526118 39.8282353,112.248 C38.3576471,113.718118 38.3576471,116.101647 39.8282353,117.572235 C41.2988235,119.042824 43.6823529,119.042353 45.152,117.572235 C46.4512941,116.272471 48.1792941,115.556706 50.0174118,115.556706 Z" id="Path"></path>
            <path d="M117.787294,112.248 C116.316706,113.718118 116.316706,116.101647 117.787294,117.572235 C119.257412,119.042353 121.640941,119.042353 123.111059,117.572235 C125.793882,114.888941 130.16,114.889412 132.842824,117.572235 C133.577882,118.307294 134.541176,118.674824 135.504941,118.674824 C136.468706,118.674824 137.432,118.307294 138.167059,117.572235 C139.637647,116.102118 139.637647,113.718588 138.167059,112.248 C132.549176,106.629647 123.406588,106.629176 117.787294,112.248 Z" id="Path"></path>
            <path d="M127.956706,149.386824 C106.474353,170.869176 71.5204706,170.869176 50.0376471,149.386824 C48.5675294,147.916706 46.184,147.916706 44.7138824,149.386824 C43.2432941,150.856941 43.2432941,153.240941 44.7138824,154.711059 C56.9228235,166.92 72.96,173.024471 88.9971765,173.024471 C105.034824,173.024471 121.072,166.92 133.280941,154.711059 C134.751529,153.240941 134.751529,150.857412 133.280941,149.386824 C131.810824,147.916706 129.426824,147.916706 127.956706,149.386824 Z" id="Path"></path>
            <path d="M177.826353,119.613176 C177.826353,109.386824 170.433412,100.859765 160.712941,99.0814118 L160.712941,36.1011765 C160.712941,27.9308235 156.648471,20.3562353 149.840471,15.8390588 C143.445647,11.5967059 135.507765,10.6338824 128.329412,13.1632941 L104.693647,5.14070588 C86.5317647,-1.02447059 67.4141176,-1.65694118 49.408,3.31105882 C25.8352941,9.81505882 12.3209412,23.5684706 10.2348235,43.1185882 C8.38870588,45.5534118 6.92188235,48.288 5.92517647,51.2385882 L4.09176471,56.6649412 C3.10776471,59.5783529 4.19247059,62.64 6.792,64.2832941 C9.39105882,65.9265882 12.6225882,65.5943529 14.8324706,63.4555294 C15.5872941,62.7247059 16.4127059,62.1091765 17.2814118,61.5943529 L17.2814118,99.0814118 C7.56094118,100.859765 0.168,109.386353 0.168,119.613176 C0.168,130.248941 8.16376471,139.046588 18.4588235,140.325647 C21.0442353,154.601412 27.8381176,167.769882 38.2263529,178.307765 C51.7891765,192.065882 69.8192941,199.642353 88.9971765,199.642353 C88.9995294,199.642353 89.0018824,199.642353 89.0042353,199.642353 C108.157647,199.640471 126.164235,192.180706 139.707765,178.637647 C150.287059,168.058353 157.153882,154.755765 159.654118,140.310588 C169.891765,138.978353 177.826353,130.207529 177.826353,119.613176 Z M145.677647,22.1134118 C150.448,25.2781176 153.183529,30.3764706 153.183529,36.1011765 L153.183529,85.3665882 C141.498353,83.5505882 132.526118,73.4216471 132.526118,61.2352941 L132.214588,19.8423529 C136.811765,18.6305882 141.605647,19.4117647 145.677647,22.1134118 Z M12.3270588,55.8136471 L13.0588235,53.6484706 C14.9755294,47.9755294 19.232,43.3698824 24.7364706,41.0131765 C30.2404706,38.6564706 36.5110588,38.7543529 41.9392941,41.2828235 C53.3397647,46.5924706 67.1218824,43.7218824 75.4541176,34.3025882 L76.3868235,33.248 C77.7647059,31.6908235 77.6188235,29.3115294 76.0616471,27.9341176 C74.504,26.5567059 72.1247059,26.7021176 70.7472941,28.2592941 L69.8145882,29.3138824 C63.6743529,36.2550588 53.5185882,38.3698824 45.1181176,34.4574118 C37.752,31.0263529 29.2423529,30.8931765 21.7727059,34.0917647 C21.0927059,34.3830588 20.4315294,34.7082353 19.7807059,35.0484706 C24.1567059,23.3821176 34.7477647,15.1665882 51.4112941,10.5689412 C67.9576471,6.00329412 85.5454118,6.592 102.274353,12.2701176 L124.685176,19.8771765 L124.978824,39.3298824 C115,52.8974118 100.446588,62.0818824 83.8621176,65.24 C66.88,68.4734118 49.5557647,65.0517647 35.0795294,55.6051765 C28.0061176,50.9901176 19.088,51.1872941 12.3270588,55.8136471 Z M7.69741176,119.613176 C7.69741176,113.56 11.7487059,108.438118 17.2814118,106.808471 L17.2814118,127.214118 C17.2814118,128.976941 17.3449412,130.729882 17.4687059,132.471529 C11.8409412,130.903059 7.69741176,125.734588 7.69741176,119.613176 Z M134.384,173.312941 C122.262588,185.434353 106.146353,192.110588 89.0037647,192.112471 C89.0009412,192.112471 89.0004706,192.112471 88.9971765,192.112471 C71.8522353,192.112471 55.7242353,185.331765 43.5882353,173.021647 C31.4795294,160.738353 24.8108235,144.470118 24.8108235,127.213647 L24.8108235,59.8192941 C26.9430588,59.9783529 29.0588235,60.6682353 30.9637647,61.9110588 C47.0795294,72.4272941 66.3651765,76.2367059 85.2696471,72.6367059 C100.615059,69.7143529 114.400471,62.16 124.996235,51.0188235 L124.996235,61.2348235 C124.996235,77.5788235 137.333647,91.0875294 153.183059,92.9571765 L153.183059,127.925647 C153.183529,145.071059 146.507294,161.190118 134.384,173.312941 Z M160.567529,132.459294 C160.660706,130.956235 160.712941,129.445176 160.712941,127.926118 L160.712941,106.808471 C166.245647,108.438118 170.296941,113.56 170.296941,119.613176 C170.296941,125.719059 166.174588,130.877176 160.567529,132.459294 Z" id="Shape" fill-rule="nonzero"></path>
        </g>
    </g>
</svg>