<?xml version="1.0" encoding="UTF-8"?>
<svg width="210px" height="210px" viewBox="0 0 210 210" version="1.1" xmlns="http://www.w3.org/2000/svg" xmlns:xlink="http://www.w3.org/1999/xlink">
    <!-- Generator: Sketch 52.4 (67378) - http://www.bohemiancoding.com/sketch -->
    <title>Artboard</title>
    <desc>Created with Sketch.</desc>
    <g id="Artboard" stroke="none" stroke-width="1" fill="none" fill-rule="evenodd">
        <g id="female" transform="translate(18.000000, 5.000000)" fill="#FFFFFF">
            <path d="M100.220379,150.95545 C92.9862559,158.189573 81.2156398,158.189573 73.9819905,150.95545 C72.5014218,149.474882 70.1009479,149.474882 68.6203791,150.95545 C67.1393365,152.436019 67.1393365,154.836493 68.6203791,156.317062 C73.7156398,161.412322 80.4085308,163.959716 87.1014218,163.959716 C93.7943128,163.959716 100.487204,161.412322 105.582464,156.317062 C107.063507,154.836493 107.063507,152.436019 105.582464,150.95545 C104.101896,149.474882 101.700948,149.474882 100.220379,150.95545 Z" id="Path"></path>
            <path d="M172.901896,188.570142 C164.020379,178.735071 163.64455,153.674408 164.695735,127.74455 C168.564455,124.1109 170.988152,118.95545 170.988152,113.241706 C170.988152,108.224171 169.118009,103.637915 166.043602,100.133175 C167.335545,73.685782 168.020853,55.9995261 159.631754,39.6687204 C153.908531,28.5255924 144.647867,19.2151659 132.107583,11.9962085 C117.491943,3.58293839 100.819905,-0.546919431 83.8919431,0.0582938389 C69.0227488,0.588151659 55.1796209,7.51563981 45.6336493,19.1388626 C33.3075829,19.8720379 22.0947867,26.5800948 16.0620853,36.9478673 C15.5440758,37.8379147 15.043128,38.7530806 14.5729858,39.6682464 C6.17914692,56.0080569 6.86398104,73.692891 8.15592417,100.137441 C5.08341232,103.641706 3.21516588,108.226066 3.21516588,113.241706 C3.21516588,118.953555 5.63696682,124.107583 9.50379147,127.741232 C10.5549763,153.672986 10.1791469,178.735545 1.29763033,188.570616 C0.457819905,189.500474 0.131753555,190.785782 0.426540284,192.003791 C0.721327014,193.221801 1.59905213,194.21564 2.77109005,194.658768 C12.7677725,198.436019 22.4492891,199.78673 31.1872038,199.78673 C40.264455,199.78673 48.3232227,198.327962 54.649763,196.617062 C65.642654,193.64455 73.3962085,189.472038 76.0417062,187.932227 C79.6421801,188.525592 83.335545,188.83981 87.1014218,188.83981 C90.8663507,188.83981 94.5587678,188.526066 98.1582938,187.932701 C100.804265,189.472986 108.557346,193.64455 119.549289,196.617062 C127.988626,198.899052 135.812322,199.791469 142.890047,199.791469 C154.680095,199.791469 164.398104,197.314218 171.427962,194.65782 C172.600474,194.214692 173.477725,193.221327 173.772512,192.002844 C174.067773,190.785308 173.741706,189.500474 172.901896,188.570142 Z M154.873934,121.067773 L154.873934,102.245498 C154.874882,102.195735 154.874882,102.145498 154.873934,102.095261 L154.873934,101.518483 C159.818483,103.121801 163.404739,107.769668 163.404739,113.241232 C163.404739,118.756398 159.762559,123.436967 154.756872,125.003791 C154.831754,123.700948 154.873934,122.389573 154.873934,121.067773 Z M21.3180095,43.1331754 C21.7279621,42.335545 22.164455,41.5374408 22.6161137,40.7616114 C27.6099526,32.1791469 37.1611374,26.7744076 47.5421801,26.6563981 C47.5540284,26.6563981 47.5824645,26.6559242 47.5947867,26.6554502 C48.7464455,26.6312796 49.8241706,26.0853081 50.5251185,25.171564 C58.7075829,14.4981043 70.9677725,8.10663507 84.1620853,7.63601896 C99.6687204,7.08293839 114.940284,10.8635071 128.323697,18.5677725 C139.577251,25.0459716 147.841232,33.3109005 152.885782,43.1331754 C159.600474,56.2042654 159.799526,70.4227488 158.698578,94.8535545 C157.479621,94.3469194 156.2,93.9597156 154.873934,93.7023697 L154.873934,89.8469194 C154.873934,87.7530806 153.176303,86.0554502 151.082464,86.0554502 C148.988626,86.0554502 147.290995,87.7530806 147.290995,89.8469194 L147.290995,98.4578199 C95.063981,99.0156398 66.7909953,73.8597156 59.2469194,65.9890995 C58.3592417,65.0630332 57.0635071,64.6488152 55.8047393,64.8872038 C54.5445498,65.1255924 53.4905213,65.9848341 53.0028436,67.17109 C47.4933649,80.5729858 37.8672986,87.5848341 22.7099526,89.2369668 C20.7862559,89.4464455 19.3293839,91.07109 19.3293839,93.0061611 L19.3293839,93.7018957 C18.0018957,93.9592417 16.7208531,94.3469194 15.5009479,94.8545024 C14.3995261,70.4293839 14.6,56.2113744 21.3180095,43.1331754 Z M19.4459716,125.004265 C14.4402844,123.437441 10.7981043,118.756872 10.7981043,113.241706 C10.7981043,107.769668 14.3843602,103.121801 19.32891,101.518957 L19.32891,121.067773 C19.32891,122.389573 19.37109,123.700948 19.4459716,125.004265 Z M10.1838863,189.167299 C16.9450237,177.627014 18.1175355,158.442654 17.2578199,132.264455 C18.264455,132.575355 19.3061611,132.804739 20.3734597,132.952607 C24.685782,157.230806 41.9696682,177.078199 64.778673,185.058294 C53.8085308,189.778673 33.0454976,196.033649 10.1838863,189.167299 Z M87.1014218,181.256872 C53.9127962,181.256872 26.9118483,154.255924 26.9118483,121.067299 L26.9123223,96.3151659 C41.1317536,93.9753555 51.2554502,86.9753555 57.6729858,75.0312796 C63.135545,80.0146919 71.9677725,86.8492891 84.4151659,92.8393365 C103.130806,101.845972 124.266825,106.288152 147.290995,106.04218 L147.290995,121.067299 C147.290995,154.256398 120.290047,181.256872 87.1014218,181.256872 Z M121.778199,189.363981 C116.916588,188.064455 112.721801,186.494313 109.410427,185.063033 C132.22654,177.08673 149.516588,157.236019 153.829858,132.952607 C154.896209,132.804739 155.936493,132.575829 156.94218,132.265403 C156.081991,158.446919 157.254028,177.63128 164.018483,189.17109 C150.628436,193.216114 136.443602,193.28436 121.778199,189.363981 Z" id="Shape" fill-rule="nonzero"></path>
            <path d="M41.7838863,109.83128 C40.3028436,111.311848 40.3028436,113.712322 41.7838863,115.192891 C43.264455,116.67346 45.6649289,116.67346 47.1454976,115.192891 C49.5758294,112.763507 53.5293839,112.763033 55.9597156,115.192891 C56.7,115.933175 57.6701422,116.303318 58.6407583,116.303318 C59.6113744,116.303318 60.5815166,115.933175 61.3218009,115.192891 C62.8028436,113.712322 62.8028436,111.311848 61.3218009,109.83128 C55.935545,104.44455 47.1701422,104.444076 41.7838863,109.83128 Z" id="Path"></path>
            <path d="M132.419431,115.192891 C133.900474,113.712322 133.900474,111.311848 132.419431,109.83128 C127.032701,104.44455 118.267773,104.44455 112.881517,109.83128 C111.400474,111.311848 111.400474,113.712322 112.881517,115.192891 C114.362085,116.67346 116.762559,116.67346 118.243128,115.192891 C120.67346,112.763033 124.627488,112.763507 127.057346,115.192891 C127.79763,115.933175 128.767773,116.303318 129.738389,116.303318 C130.709005,116.303318 131.679147,115.933175 132.419431,115.192891 Z" id="Path"></path>
        </g>
    </g>
</svg>